# xmcd
#
# Track frame offsets: 
#        150
#        26506
#        43653
#        57932
#        82469
#        103557
#        122837
#        144362
#        166479
#        184840
#        211038
#        232175
#        250500
#        266502
#        281312
#        297868
#        321338
#        337861
#
# Disc length: 4776 seconds
#
# Revision: 2
# Processed by: cddbd v1.5.2PL0 Copyright (c) Steve Scherf et al.
# Submitted via: ExactAudioCopy v1.1
#
DISCID=0612a612
DTITLE=Various Artist - Akella Presents - vol.96 - Modern Electric Bl
DTITLE=ues  CD2
DYEAR=2016
DGENRE=Blues
TTITLE0=Twelve Bar Blues Band - Marian
TTITLE1=Alex Jenkins and The Bombers - Hometown Boy
TTITLE2=The Bluescasters - Chicken In My Kitchen
TTITLE3=Miguel M. and Brachay's Blues Band - The Thrill Is Gone
TTITLE4=Calvin Russell - Valley Far Below
TTITLE5=Eric Bibb - Dream Catchers
TTITLE6=Planet Full of Blues - I Had A Dream
TTITLE7=Timo Gross - That Something
TTITLE8=Fabian Anderhub - You Dont Love Me
TTITLE9=Cleveland Fats - You'll Love Again
TTITLE10=Guy Forsyth - New Monkey King
TTITLE11=Rockin' Johnny Band - House Band Blues
TTITLE12=Rick Estrin - Desperation Persperation
TTITLE13=Paul Orta - Don't Start Me Talking
TTITLE14=Big Boy Bloater and The Limits - Stop Dragging Me Back
TTITLE15=Mark Ford - Up From The Streets
TTITLE16=Texas Slim - Love Somebody
TTITLE17=Steven Seagal - Route 23
EXTD=
EXTT0=
EXTT1=
EXTT2=
EXTT3=
EXTT4=
EXTT5=
EXTT6=
EXTT7=
EXTT8=
EXTT9=
EXTT10=
EXTT11=
EXTT12=
EXTT13=
EXTT14=
EXTT15=
EXTT16=
EXTT17=
PLAYORDER=
